<svg width="6" height="8" viewBox="0 0 6 8" fill="none" xmlns="http://www.w3.org/2000/svg">
<path d="M5.07557 3.56482L4.90021 3.73984L5.07557 3.56482C5.13484 3.62421 5.18295 3.69496 5.21226 3.77752C5.23805 3.84954 5.25 3.92432 5.25 4C5.25 4.07567 5.23805 4.15045 5.21226 4.22246C5.18296 4.30503 5.13484 4.37579 5.07557 4.43518L5.07531 4.43544L1.96958 7.53808C1.96955 7.53811 1.96952 7.53814 1.96949 7.53817C1.83365 7.67423 1.66369 7.75 1.47005 7.75C1.27636 7.75 1.10637 7.6742 0.970515 7.53808C0.833284 7.40058 0.759217 7.22839 0.759217 7.03346C0.759217 6.84377 0.826682 6.67332 0.961299 6.53844L3.49472 4L0.961298 1.46156C0.825449 1.32545 0.750001 1.15535 0.750001 0.961742C0.750001 0.768137 0.825449 0.598038 0.961298 0.461921C1.09977 0.323171 1.2738 0.25 1.47005 0.25C1.66107 0.25 1.83364 0.316481 1.96958 0.452686L5.07557 3.56482Z" fill="white" stroke="white" stroke-width="0.5"/>
</svg>
