<svg width="8" height="5" viewBox="0 0 8 5" fill="none" xmlns="http://www.w3.org/2000/svg">
<path id="Vector" d="M4.38635 4.11203L7.04571 1.78277C7.04577 1.78272 7.04583 1.78267 7.04589 1.78261C7.17083 1.67343 7.25 1.52733 7.25 1.35253C7.25 1.17765 7.17075 1.03149 7.04571 0.922293C6.91951 0.812087 6.76685 0.756912 6.60011 0.756912C6.43819 0.756912 6.28692 0.806935 6.16273 0.915381L4 2.80404L1.83726 0.915381C1.71235 0.806293 1.5615 0.75 1.39578 0.75C1.23005 0.75 1.07921 0.806293 0.954292 0.915381C0.826038 1.02738 0.75 1.17687 0.75 1.35253C0.75 1.5226 0.818978 1.67152 0.946376 1.78278L3.61392 4.11227C3.66945 4.16076 3.73391 4.19859 3.80683 4.22124C3.86995 4.24102 3.93482 4.25 4 4.25C4.06518 4.25 4.13005 4.24102 4.19317 4.22124C4.26609 4.19859 4.33055 4.16076 4.38608 4.11227L4.38635 4.11203Z" fill="#222222" stroke="#222222" stroke-width="0.5"/>
</svg>
