<svg width="50" height="38" viewBox="0 0 50 38" fill="none" xmlns="http://www.w3.org/2000/svg">
<path id="&#226;&#128;&#156;" d="M12.1849 37.6751C9.94398 37.6751 8.02988 37.2549 6.44258 36.4146C4.94865 35.5742 3.73483 34.4071 2.80112 32.9132C1.86741 31.5126 1.16713 29.8319 0.70028 27.8711C0.233426 25.817 0 23.9029 0 22.1288C0 17.4603 1.16713 13.2119 3.5014 9.38375C5.92904 5.46218 9.61718 2.33426 14.5658 0L15.8263 2.52101C13.1186 3.64145 10.7376 5.41549 8.68347 7.84313C6.72269 10.2708 5.55555 12.7451 5.18207 15.2661C4.90196 17.0401 4.94865 18.6741 5.32213 20.1681C7.18954 18.3007 9.57049 17.3669 12.465 17.3669C15.4528 17.3669 17.9272 18.254 19.888 20.028C21.8487 21.8021 22.8291 24.3231 22.8291 27.591C22.8291 30.5789 21.8021 33.0065 19.7479 34.8739C17.6937 36.7414 15.1727 37.6751 12.1849 37.6751ZM39.3557 37.6751C37.1148 37.6751 35.2007 37.2549 33.6134 36.4146C32.1195 35.5742 30.9057 34.4071 29.972 32.9132C29.0383 31.5126 28.338 29.8319 27.8711 27.8711C27.4043 25.817 27.1709 23.9029 27.1709 22.1288C27.1709 17.4603 28.338 13.2119 30.6723 9.38375C33.0999 5.46218 36.788 2.33426 41.7367 0L42.9972 2.52101C40.2894 3.64145 37.9085 5.41549 35.8543 7.84313C33.8936 10.2708 32.7264 12.7451 32.3529 15.2661C32.0728 17.0401 32.1195 18.6741 32.493 20.1681C34.3604 18.3007 36.7414 17.3669 39.6359 17.3669C42.6237 17.3669 45.098 18.254 47.0588 20.028C49.0196 21.8021 50 24.3231 50 27.591C50 30.5789 48.9729 33.0065 46.9188 34.8739C44.8646 36.7414 42.3436 37.6751 39.3557 37.6751Z" fill="#D0A966"/>
</svg>
