<svg width="18" height="15" viewBox="0 0 18 15" fill="none" xmlns="http://www.w3.org/2000/svg">
<path d="M16.9933 4.95282C16.9967 4.9296 16.9993 4.90726 16.9983 4.88377C16.998 4.87633 17.0006 4.86959 16.9999 4.86207C16.9986 4.85007 16.9927 4.84055 16.9904 4.82904C16.986 4.80673 16.9805 4.78568 16.9719 4.7646C16.964 4.74524 16.9545 4.72832 16.9436 4.71134C16.9374 4.7017 16.9348 4.69033 16.9276 4.68132L14.0698 1.10632C14.0596 1.09357 14.0454 1.08738 14.0337 1.07675C14.0201 1.06425 14.0096 1.04864 13.9936 1.03888C13.9902 1.03682 13.9865 1.03713 13.9831 1.03523C13.9674 1.02646 13.9505 1.02343 13.9336 1.01807C13.9124 1.01135 13.8919 1.00395 13.8705 1.00294C13.8662 1.00272 13.8625 1 13.8582 1H4.14176C4.13749 1 4.13375 1.00272 4.1295 1.00294C4.10796 1.00395 4.08741 1.01137 4.06616 1.01813C4.04933 1.02349 4.03255 1.02652 4.01692 1.03523C4.01352 1.03713 4.00977 1.0368 4.00641 1.03888C3.99045 1.04864 3.97989 1.06425 3.96629 1.07675C3.95462 1.08738 3.9404 1.09357 3.93022 1.10632L1.07243 4.68132C1.06535 4.69021 1.06275 4.70144 1.05668 4.71092C1.04564 4.7281 1.03597 4.74524 1.02798 4.76487C1.01947 4.7858 1.01405 4.80675 1.00965 4.82889C1.00731 4.84045 1.00138 4.85001 1.00015 4.86207C0.99936 4.86959 1.00203 4.87633 1.00171 4.88377C1.00067 4.90726 1.00334 4.9296 1.00674 4.95282C1.00949 4.97145 1.01145 4.98954 1.01691 5.00706C1.02296 5.02671 1.03252 5.04411 1.04199 5.06238C1.05146 5.08057 1.06023 5.09825 1.07257 5.114C1.07637 5.11887 1.0778 5.12512 1.08192 5.12979L8.79795 13.9048C8.80234 13.9098 8.80824 13.9114 8.81284 13.916C8.83231 13.9356 8.8535 13.9515 8.87687 13.9644C8.88556 13.9692 8.89351 13.9747 8.9025 13.9784C8.9334 13.9913 8.96581 14 9 14C9.03419 14 9.0666 13.9913 9.0975 13.9784C9.10649 13.9747 9.11444 13.9692 9.12313 13.9644C9.1465 13.9515 9.16769 13.9356 9.18716 13.916C9.19176 13.9114 9.19766 13.9098 9.20205 13.9048L16.9181 5.12979C16.9222 5.12512 16.9236 5.11887 16.9274 5.114C16.9398 5.09825 16.9485 5.08057 16.958 5.06238C16.9675 5.04411 16.977 5.02671 16.9831 5.00706C16.9886 4.98954 16.9905 4.97145 16.9933 4.95282ZM4.08151 1.88351L5.63013 5.15424L1.86912 4.65103L4.08151 1.88351ZM16.1309 4.65103L12.3699 5.15424L13.9185 1.88351L16.1309 4.65103ZM11.4356 5.875L9 12.8L6.56439 5.875H11.4356ZM6.7227 5.225L9 1.85804L11.2773 5.225H6.7227ZM11.8154 4.95411L9.58051 1.65H13.3797L11.8154 4.95411ZM6.18463 4.95411L4.62031 1.65H8.41949L6.18463 4.95411ZM5.93991 5.85018L8.21747 12.3255L2.06794 5.33216L5.93991 5.85018ZM12.0601 5.85018L15.9321 5.33216L9.78253 12.3255L12.0601 5.85018Z" fill="#222222" stroke="#222222" stroke-width="0.3"/>
</svg>
