<svg width="45" height="45" viewBox="0 0 45 45" fill="none" xmlns="http://www.w3.org/2000/svg">
<g id="Group">
<path id="Path" d="M30 15H33.75" stroke="#222222" stroke-width="1.5" stroke-linecap="round" stroke-linejoin="round"/>
<path id="Path_2" d="M28.125 20.625H33.75" stroke="#222222" stroke-width="1.5" stroke-linecap="round" stroke-linejoin="round"/>
<path id="Path_3" d="M14.2411 11.25V15" stroke="#222222" stroke-width="1.5" stroke-linecap="round" stroke-linejoin="round"/>
<path id="Path_4" d="M10.3125 20.625V16.5C10.3125 15.6716 10.9841 15 11.8125 15H16.3125C17.1409 15 17.8125 15.6716 17.8125 16.5V20.625" stroke="#222222" stroke-width="1.5" stroke-linecap="round" stroke-linejoin="round"/>
<path id="Path_5" d="M22.5 28.125V22.375C22.5 21.4085 21.7165 20.625 20.75 20.625H7.37499C6.40851 20.625 5.62502 21.4085 5.625 22.375V39.375" stroke="#222222" stroke-width="1.5" stroke-linecap="round" stroke-linejoin="round"/>
<circle id="Oval" cx="33.75" cy="33.75" r="7.5" stroke="#222222" stroke-width="1.5" stroke-linecap="round" stroke-linejoin="round"/>
<path id="Path_6" d="M36.2719 32.265L33.1219 35.4131L31.2281 33.525" stroke="#222222" stroke-width="1.5" stroke-linecap="round" stroke-linejoin="round"/>
<path id="Path_7" d="M11.25 28.125H16.875" stroke="#222222" stroke-width="1.5" stroke-linecap="round" stroke-linejoin="round"/>
<path id="Path_8" d="M11.25 33.75H16.875" stroke="#222222" stroke-width="1.5" stroke-linecap="round" stroke-linejoin="round"/>
<path id="Path_9" d="M22.5 15V12.6587C22.5 11.4863 23.2273 10.4369 24.325 10.0253L35.575 5.80664C36.4387 5.48277 37.4063 5.603 38.1645 6.12841C38.9227 6.65382 39.375 7.51761 39.375 8.44004V22.5" stroke="#222222" stroke-width="1.5" stroke-linecap="round" stroke-linejoin="round"/>
</g>
</svg>
