<svg width="17" height="17" viewBox="0 0 17 17" fill="none" xmlns="http://www.w3.org/2000/svg">
<g id="Group">
<g id="Group_2">
<path id="Path" d="M12.75 3.54167H14.875" stroke="white" stroke-width="1.5" stroke-linecap="round" stroke-linejoin="round"/>
<path id="Path_2" d="M2.125 3.54167H9.91667" stroke="white" stroke-width="1.5" stroke-linecap="round" stroke-linejoin="round"/>
<path id="Path_3" d="M7.08333 8.50001H14.875" stroke="white" stroke-width="1.5" stroke-linecap="round" stroke-linejoin="round"/>
<path id="Path_4" d="M2.125 8.50001H4.25" stroke="white" stroke-width="1.5" stroke-linecap="round" stroke-linejoin="round"/>
<path id="Path_5" d="M12.75 13.4583H14.875" stroke="white" stroke-width="1.5" stroke-linecap="round" stroke-linejoin="round"/>
<path id="Path_6" d="M2.125 13.4583H9.91667" stroke="white" stroke-width="1.5" stroke-linecap="round" stroke-linejoin="round"/>
<path id="Path_7" d="M12.3351 2.53993C12.8883 3.09318 12.8883 3.99016 12.3351 4.5434C11.7818 5.09665 10.8848 5.09665 10.3316 4.5434C9.77835 3.99016 9.77835 3.09318 10.3316 2.53993C10.8848 1.98669 11.7818 1.98669 12.3351 2.53993" stroke="white" stroke-width="1.5" stroke-linecap="round" stroke-linejoin="round"/>
<path id="Path_8" d="M6.6684 7.49828C7.22165 8.05152 7.22165 8.9485 6.6684 9.50175C6.11516 10.055 5.21818 10.055 4.66493 9.50175C4.11169 8.9485 4.11169 8.05152 4.66493 7.49828C5.21818 6.94503 6.11516 6.94503 6.6684 7.49828" stroke="white" stroke-width="1.5" stroke-linecap="round" stroke-linejoin="round"/>
<path id="Path_9" d="M12.3351 12.4566C12.8883 13.0099 12.8883 13.9068 12.3351 14.4601C11.7818 15.0133 10.8848 15.0133 10.3316 14.4601C9.77835 13.9068 9.77835 13.0099 10.3316 12.4566C10.8848 11.9034 11.7818 11.9034 12.3351 12.4566" stroke="white" stroke-width="1.5" stroke-linecap="round" stroke-linejoin="round"/>
</g>
</g>
</svg>
