<svg width="52" height="52" viewBox="0 0 52 52" fill="none" xmlns="http://www.w3.org/2000/svg">
<g id="Group">
<path id="Path" d="M35.9001 41.6315H19.7474" stroke="#222222" stroke-width="1.5" stroke-linecap="round" stroke-linejoin="round"/>
<path id="Path_2" d="M19.3016 33.5898L17.6085 38.6691" stroke="#222222" stroke-width="1.5" stroke-linecap="round" stroke-linejoin="round"/>
<ellipse id="Oval" cx="16.6212" cy="41.6317" rx="3.1263" ry="3.1263" stroke="#222222" stroke-width="1.5" stroke-linecap="round" stroke-linejoin="round"/>
<path id="Path_3" d="M32.7635 33.5664L37.1159 44.758" stroke="#222222" stroke-width="1.5" stroke-linecap="round" stroke-linejoin="round"/>
<path id="Path_4" fill-rule="evenodd" clip-rule="evenodd" d="M11.4106 17.6636H40.5894C41.7405 17.6636 42.6736 18.5967 42.6736 19.7478V19.7478C42.6736 26.6542 37.0749 32.253 30.1684 32.253H21.8316C14.9252 32.253 9.32642 26.6542 9.32642 19.7478V19.7478C9.32642 18.5967 10.2595 17.6636 11.4106 17.6636Z" stroke="#222222" stroke-width="1.5" stroke-linecap="round" stroke-linejoin="round"/>
<path id="Path_5" d="M18.1843 11.4108C17.4896 10.4845 17.4896 9.21082 18.1843 8.28451C18.879 7.35819 18.879 6.08451 18.1843 5.1582" stroke="#222222" stroke-width="1.5" stroke-linecap="round" stroke-linejoin="round"/>
<path id="Path_6" d="M33.8158 11.4108C33.121 10.4845 33.121 9.21082 33.8158 8.28451C34.5105 7.35819 34.5105 6.08451 33.8158 5.1582" stroke="#222222" stroke-width="1.5" stroke-linecap="round" stroke-linejoin="round"/>
<path id="Path_7" d="M26 11.4108C25.3053 10.4845 25.3053 9.21082 26 8.28451C26.6947 7.35819 26.6947 6.08451 26 5.1582" stroke="#222222" stroke-width="1.5" stroke-linecap="round" stroke-linejoin="round"/>
</g>
</svg>
