<svg width="32" height="32" viewBox="0 0 32 32" fill="none" xmlns="http://www.w3.org/2000/svg">
<path id="Vector" d="M16.0002 0.8H16C12.9937 0.8 10.055 1.69146 7.55534 3.36166C5.05571 5.03186 3.10749 7.40577 1.95704 10.1832C0.806586 12.9606 0.505575 16.0169 1.09207 18.9654C1.67857 21.9139 3.12622 24.6223 5.25198 26.748C7.37774 28.8738 10.0861 30.3214 13.0346 30.9079C15.9831 31.4944 19.0394 31.1934 21.8168 30.043C24.5942 28.8925 26.9681 26.9443 28.6383 24.4447C30.3085 21.945 31.2 19.0063 31.2 16V15.9998C31.1957 11.9699 29.593 8.1062 26.7434 5.25661C23.8938 2.40702 20.0301 0.804256 16.0002 0.8ZM15.9998 28.4923C13.5291 28.4923 11.1139 27.7596 9.05965 26.387C7.0053 25.0143 5.40413 23.0633 4.45862 20.7806C3.51311 18.4979 3.26572 15.9861 3.74773 13.5629C4.22975 11.1396 5.41953 8.91368 7.16661 7.1666C8.91369 5.41952 11.1396 4.22975 13.5629 3.74773C15.9861 3.26571 18.4979 3.5131 20.7806 4.45861C23.0633 5.40412 25.0143 7.00529 26.387 9.05964C27.7596 11.1139 28.4923 13.5291 28.4923 15.9998C28.4886 19.3118 27.1712 22.4872 24.8292 24.8292C22.4872 27.1712 19.3118 28.4885 15.9998 28.4923ZM18.1112 23.8804C18.3651 23.6265 18.5077 23.2821 18.5077 22.9231C18.5077 22.564 18.3651 22.2197 18.1112 21.9658C17.9049 21.7595 17.6389 21.6266 17.3538 21.5841V16C17.3538 15.3349 17.0896 14.6971 16.6194 14.2268C16.1491 13.7565 15.5112 13.4923 14.8462 13.4923C14.4871 13.4923 14.1427 13.6349 13.8888 13.8888C13.6349 14.1427 13.4923 14.4871 13.4923 14.8462C13.4923 15.2052 13.6349 15.5496 13.8888 15.8035C14.0951 16.0097 14.3611 16.1426 14.6462 16.1851V21.7692C14.6462 22.4343 14.9104 23.0721 15.3806 23.5424C15.8509 24.0127 16.4888 24.2769 17.1538 24.2769C17.5129 24.2769 17.8573 24.1343 18.1112 23.8804ZM13.8177 8.58117C13.6055 8.89868 13.4923 9.27197 13.4923 9.65384C13.4923 10.1659 13.6957 10.657 14.0578 11.0191C14.4199 11.3812 14.911 11.5846 15.4231 11.5846C15.805 11.5846 16.1782 11.4714 16.4958 11.2592C16.8133 11.0471 17.0607 10.7455 17.2069 10.3927C17.353 10.0399 17.3913 9.6517 17.3168 9.27717C17.2423 8.90264 17.0584 8.55861 16.7883 8.28858C16.5183 8.01856 16.1743 7.83467 15.7998 7.76017C15.4252 7.68568 15.037 7.72391 14.6842 7.87005C14.3314 8.01618 14.0299 8.26365 13.8177 8.58117Z" fill="#7B7B7B" stroke="#7B7B7B" stroke-width="0.4"/>
</svg>
