<svg width="140" height="24" viewBox="0 0 140 24" fill="none" xmlns="http://www.w3.org/2000/svg">
<g id="Logo" clip-path="url(#clip0_166_1101)">
<path id="Union" fill-rule="evenodd" clip-rule="evenodd" d="M57.167 8.78916C57.167 6.85511 56.5101 5.77349 54.921 5.77349C54.324 5.75932 53.7404 5.95409 53.2684 6.32504C52.3855 7.04135 51.7499 8.53844 51.7005 11.1816V16.0597C51.7005 16.6542 51.8629 16.8405 52.5833 16.8405C52.7804 16.8405 52.9317 16.8265 53.0619 16.8145C53.1604 16.8055 53.2468 16.7975 53.3319 16.7975C53.3625 16.7955 53.3931 16.8 53.4218 16.8107C53.4505 16.8214 53.4766 16.8381 53.4986 16.8597C53.5205 16.8813 53.5378 16.9073 53.5492 16.9361C53.5607 16.9649 53.5661 16.9957 53.565 17.0267C53.5686 17.0583 53.5649 17.0904 53.5544 17.1203C53.5438 17.1503 53.5266 17.1774 53.5041 17.1995C53.4816 17.2217 53.4543 17.2383 53.4245 17.2481C53.3946 17.2579 53.363 17.2606 53.3319 17.256C53.268 17.256 53.1837 17.2475 53.0846 17.2375C52.9427 17.2232 52.7703 17.2058 52.5833 17.2058C52.2961 17.2058 52.0022 17.1955 51.7023 17.185H51.7022H51.7022L51.7021 17.185C51.3899 17.174 51.0712 17.1628 50.747 17.1628C50.4237 17.1628 50.1077 17.174 49.7972 17.1849L49.797 17.1849C49.4971 17.1954 49.2022 17.2058 48.9107 17.2058C48.7254 17.2058 48.5569 17.2229 48.4164 17.2371L48.4164 17.2371C48.3159 17.2472 48.2298 17.256 48.1621 17.256C48.1021 17.256 48.0447 17.2318 48.0023 17.1888C47.9599 17.1458 47.9361 17.0875 47.9361 17.0267C47.9361 16.9659 47.9599 16.9076 48.0023 16.8646C48.0447 16.8217 48.1021 16.7975 48.1621 16.7975C48.2501 16.7975 48.3343 16.8055 48.4302 16.8145C48.5574 16.8265 48.7054 16.8405 48.9107 16.8405C49.617 16.8405 49.7935 16.6542 49.7935 16.0597V2.09881C49.7935 1.3825 49.5958 1.17476 48.7977 1.17476C48.6925 1.17476 48.5761 1.1861 48.4629 1.19713C48.3557 1.20757 48.2514 1.21774 48.1621 1.21774C47.9784 1.21774 47.8937 1.15326 47.8937 0.988513C47.8937 0.823762 48.0279 0.75931 48.1832 0.75931H48.8189C49.607 0.783641 50.388 0.601036 51.086 0.229225C51.2908 0.0644733 51.4038 0 51.5239 0C51.644 0 51.7005 0.0644715 51.7005 0.272202V7.97972C51.9235 7.14087 52.4179 6.40234 53.1044 5.88272C53.7909 5.36311 54.6297 5.09255 55.486 5.11447C57.6048 5.11447 59.0739 6.28922 59.0739 9.02553V15.0282C59.0739 16.2531 59.4341 16.8691 60.1615 16.8691C60.3428 16.8625 60.5209 16.8184 60.6848 16.7395C60.8487 16.6607 60.9951 16.5488 61.115 16.4107C61.2704 16.2746 61.4328 16.2245 61.5458 16.3677C61.6588 16.511 61.5458 16.6614 61.3833 16.776C60.8571 17.1974 60.1947 17.4043 59.5259 17.3562C57.9651 17.3562 57.167 16.4608 57.167 14.3406V8.78916ZM43.2213 2.30109C43.2213 3.60478 42.5221 5.75372 41.7734 5.75372H40.3256C40.0996 5.75372 40.0078 5.86831 40.0078 6.05456C40.0078 6.2408 40.0996 6.30527 40.3256 6.30527H41.7805V13.848C41.7805 16.4482 43.0942 17.3436 44.9093 17.3436C45.6197 17.3653 46.3157 17.1375 46.8797 16.699C47.0337 16.6165 47.1724 16.5074 47.2894 16.3766C47.4448 16.219 47.4942 16.0758 47.4024 15.9612C47.3105 15.8465 47.2046 15.8752 47.0422 16.0113C46.9677 16.0737 46.9081 16.1361 46.8524 16.1943C46.7866 16.2631 46.7264 16.3262 46.6537 16.3766C46.4602 16.5445 46.2356 16.6715 45.993 16.7502C45.7505 16.8289 45.4949 16.8578 45.2412 16.835C44.1747 16.835 43.6733 16.0614 43.6733 13.9698V6.30527H46.6679C46.8939 6.30527 46.9645 6.28378 46.9645 6.05456C46.9645 5.82534 46.8939 5.75372 46.6679 5.75372H43.6733V2.30109C43.6733 2.05038 43.6027 1.93577 43.4473 1.93577C43.2919 1.93577 43.2213 2.05038 43.2213 2.30109ZM3.7961 16.1314V11.3178C3.93736 7.7792 5.32165 5.68756 7.27094 5.68756C9.53805 5.68756 10.0113 8.12303 10.0113 11.0886C10.0113 14.8778 9.22024 17.0268 6.67768 17.0268C5.65163 17.0197 4.65 16.7084 3.7961 16.1314ZM5.16653 23.5551L5.16648 23.5551C5.03928 23.5671 4.89133 23.581 4.68601 23.581L4.65068 23.5381C3.92323 23.5381 3.7608 23.3518 3.7608 22.7573V16.7259C4.73438 17.2208 5.80761 17.4807 6.89662 17.4852C10.2019 17.4852 11.9323 15.4366 11.9323 11.0384C11.9323 7.01274 10.3856 5.05723 7.64526 5.05723C5.78072 5.05723 4.4953 5.95262 3.78904 8.30212V5.37956C3.78904 5.15034 3.74668 5.07872 3.63368 5.07872C3.52068 5.07872 3.40766 5.15034 3.18166 5.33658C2.47933 5.69659 1.7014 5.87847 0.914551 5.86664H0.278916C0.116475 5.86664 0.00346239 5.93112 0.00346239 6.09587C0.00346239 6.26062 0.0670306 6.3036 0.25066 6.3036H0.914551C1.68438 6.3036 1.8892 6.48268 1.8892 7.19899V22.7716C1.8892 23.3661 1.70556 23.5524 0.999299 23.5524C0.794012 23.5524 0.646078 23.5384 0.518888 23.5264H0.518873H0.518858H0.518842H0.518825L0.518775 23.5264C0.422845 23.5173 0.33871 23.5094 0.25066 23.5094C0.219025 23.5052 0.186858 23.5081 0.156428 23.5178C0.125997 23.5275 0.098028 23.5439 0.0744812 23.5657C0.0509345 23.5875 0.0323918 23.6143 0.0201233 23.6442C0.00785471 23.6741 0.00216303 23.7063 0.00346239 23.7386C-0.00279392 23.7739 -0.000549355 23.8102 0.0100147 23.8444C0.0205787 23.8785 0.0391555 23.9096 0.0641355 23.935C0.0891155 23.9603 0.119764 23.9791 0.153475 23.9898C0.187185 24.0006 0.222939 24.0028 0.257708 23.9965C0.325426 23.9965 0.41156 23.9878 0.512012 23.9776H0.512039C0.652542 23.9634 0.821055 23.9464 1.00637 23.9464C1.29871 23.9464 1.59791 23.9359 1.90144 23.9253H1.90148H1.90151H1.90155H1.90158H1.90162H1.90166H1.9017H1.90174H1.90178H1.90182C2.21413 23.9144 2.53101 23.9034 2.84971 23.9034C3.16841 23.9034 3.48349 23.9144 3.79401 23.9253H3.79405H3.79409H3.79413H3.79417H3.79421H3.79424H3.79428H3.79431H3.79435H3.79438C4.09617 23.9359 4.39366 23.9464 4.68601 23.9464C4.87132 23.9464 5.03983 23.9634 5.18032 23.9776H5.18035C5.2808 23.9878 5.36693 23.9965 5.43465 23.9965C5.46628 24.0007 5.49845 23.9978 5.52888 23.9881C5.55931 23.9784 5.58726 23.962 5.6108 23.9402C5.63435 23.9184 5.65291 23.8916 5.66518 23.8617C5.67745 23.8318 5.68314 23.7996 5.68184 23.7673C5.68314 23.7349 5.67745 23.7027 5.66518 23.6728C5.65291 23.643 5.63435 23.6162 5.6108 23.5943C5.58726 23.5725 5.55931 23.5562 5.52888 23.5464C5.49845 23.5367 5.46628 23.5339 5.43465 23.5381C5.3466 23.5381 5.26246 23.546 5.16653 23.5551ZM16.1825 11.7331V11.3177V11.2962C16.1825 7.34217 17.3832 5.56571 19.4243 5.56571C21.084 5.56571 21.988 6.64734 21.988 8.6745C21.988 10.7017 20.9428 11.7331 18.492 11.7331H16.1825ZM18.5203 12.1988C22.0092 12.1988 23.7608 11.0885 23.7608 8.74614L23.7396 8.72465C23.7396 6.37515 22.0798 5.06429 19.4031 5.06429C15.9353 5.06429 14.1626 7.67167 14.1626 11.3249C14.1626 14.9781 15.8647 17.3705 19.6079 17.3705C20.7803 17.3828 21.9392 17.1153 22.9909 16.5897C23.1905 16.4977 23.3169 16.4424 23.408 16.4024L23.4081 16.4024L23.4081 16.4024C23.5652 16.3336 23.6177 16.3106 23.7608 16.2244C23.9868 16.0883 23.9797 15.9021 23.9161 15.809C23.8526 15.7158 23.7396 15.7158 23.5348 15.809C23.3138 15.9774 23.0773 16.1237 22.8285 16.2459C21.8882 16.6492 20.876 16.8516 19.8551 16.8404C17.7504 16.8404 16.3873 15.7803 16.2037 12.1988H18.5203ZM31.0806 6.32619C30.1272 7.08548 29.5339 8.67568 29.5339 11.5982V16.0609C29.5339 16.6554 29.6963 16.8416 30.4167 16.8416C30.6171 16.8416 30.7705 16.8266 30.8961 16.8143C30.983 16.8058 31.0565 16.7987 31.123 16.7987C31.2854 16.7987 31.3914 16.8918 31.3914 17.0279C31.3914 17.164 31.2784 17.2571 31.123 17.2571C31.0578 17.2571 30.9751 17.2483 30.8792 17.238L30.8791 17.238C30.7466 17.2238 30.5888 17.207 30.4167 17.207C30.1165 17.207 29.8146 17.1965 29.5092 17.1858L29.5091 17.1858L29.509 17.1858C29.1966 17.175 28.8807 17.164 28.5592 17.164C28.2388 17.164 27.9309 17.1749 27.6256 17.1857L27.6255 17.1857H27.6255C27.3253 17.1964 27.0276 17.207 26.723 17.207C26.5359 17.207 26.3636 17.2243 26.2217 17.2386C26.1225 17.2486 26.0383 17.2571 25.9743 17.2571C25.9144 17.2571 25.8569 17.2329 25.8145 17.19C25.7721 17.147 25.7483 17.0887 25.7483 17.0279C25.7483 16.9671 25.7721 16.9088 25.8145 16.8658C25.8569 16.8228 25.9144 16.7987 25.9743 16.7987C26.0639 16.7987 26.1535 16.8069 26.2543 16.8161C26.384 16.828 26.5322 16.8416 26.723 16.8416C27.4292 16.8416 27.6058 16.6554 27.6058 16.0609V7.20009C27.6058 6.48378 27.401 6.3047 26.6312 6.3047H25.9955C25.8401 6.3047 25.6989 6.26172 25.6989 6.10414C25.6989 5.94655 25.8613 5.86774 25.9955 5.86774H26.6523C27.4404 5.89207 28.2214 5.70949 28.9195 5.33768C29.1243 5.15144 29.2373 5.07982 29.3503 5.07982C29.4633 5.07982 29.5339 5.15143 29.5339 5.38065V7.86626C29.7666 7.04172 30.2623 6.31875 30.9435 5.81062C31.6248 5.30249 32.4529 5.03791 33.2983 5.05833C35.4171 5.05833 36.8861 6.3262 36.8861 9.19861V14.9721C36.8861 16.197 37.2463 16.813 37.9738 16.813C38.3455 16.7963 38.6958 16.6316 38.9484 16.3545C39.1038 16.2185 39.2662 16.1683 39.358 16.3116C39.4498 16.4548 39.3581 16.6053 39.2168 16.7199C38.6935 17.147 38.0289 17.3546 37.3593 17.3001C35.7702 17.3001 34.9792 16.4047 34.9792 14.2844V8.96938C34.9792 6.87775 34.3436 5.72449 32.7333 5.72449C32.1368 5.71378 31.5543 5.90818 31.0806 6.27604V6.32619ZM68.1691 17.027C65.7396 17.027 64.8144 14.7921 64.8144 11.2965C64.8144 7.82244 65.7466 5.56606 68.1691 5.56606C70.5916 5.56606 71.5239 7.82244 71.5239 11.2965C71.5239 14.7707 70.5987 17.027 68.1691 17.027ZM73.5226 11.2965C73.5226 7.87258 72.0041 5.10761 68.1691 5.10761C64.3129 5.10761 62.8156 7.84393 62.8156 11.2965C62.8156 14.7492 64.3341 17.507 68.1691 17.507C72.0041 17.507 73.5226 14.7205 73.5226 11.2965ZM82.8027 16.1323C83.7562 15.373 84.3424 13.7828 84.3424 10.8602V7.19991C84.3424 6.4836 84.1447 6.30452 83.396 6.30452H82.7321C82.5697 6.30452 82.4637 6.26154 82.4637 6.10395C82.4637 5.94636 82.5979 5.86756 82.7604 5.86756H83.4172C84.1906 5.87993 84.9549 5.69783 85.6419 5.33749C85.76 5.19168 85.9301 5.09902 86.1151 5.07963C86.2493 5.07963 86.2705 5.15125 86.2705 5.38047V14.9719C86.2705 16.1968 86.6166 16.8128 87.337 16.8128C87.7087 16.7961 88.059 16.6314 88.3116 16.3544C88.4741 16.2183 88.6294 16.1681 88.7212 16.3114C88.8131 16.4547 88.7212 16.6051 88.5871 16.7197C88.0631 17.1455 87.3989 17.353 86.7296 17.2999C85.1829 17.2999 84.3918 16.469 84.3424 14.5134C84.1163 15.3418 83.6222 16.0691 82.9395 16.5784C82.2568 17.0876 81.4251 17.3493 80.578 17.3214C78.4592 17.3214 76.9761 16.1251 76.9761 13.4103V7.14976C76.9761 6.43345 76.7712 6.25437 76.0014 6.25437H75.3446C75.2033 6.25437 75.0903 6.21139 75.0903 6.0538C75.0903 5.89622 75.2245 5.81743 75.387 5.81743H76.0438C76.8237 5.82778 77.5945 5.64586 78.2897 5.28735C78.4946 5.10111 78.6287 5.02948 78.7417 5.02948C78.8547 5.02948 78.883 5.1011 78.883 5.33032V13.7112C78.883 15.6237 79.5398 16.7268 81.1501 16.7268C81.7505 16.7404 82.3362 16.5373 82.8027 16.1538V16.1323ZM94.2311 11.9703C95.8932 12.4085 97.4675 12.8236 97.4675 14.5417L97.5241 14.4843C97.5241 15.9313 96.4364 16.8553 94.5083 16.8553C92.5802 16.8553 90.9699 15.7737 90.7439 13.8397C90.7133 13.5638 90.6992 13.2863 90.7015 13.0087C90.7015 12.801 90.6803 12.6434 90.4755 12.6434C90.2707 12.6434 90.2213 12.8368 90.2213 13.0374C90.2213 13.1244 90.2385 13.2775 90.2639 13.502C90.2969 13.7948 90.3437 14.2091 90.3837 14.7565V15.2866C90.4261 15.566 90.4261 15.7666 90.4261 16.139V16.8553C90.4261 17.1132 90.4473 17.2063 90.6309 17.2063C90.8145 17.2063 90.8357 17.1562 90.8569 16.8338C90.8781 16.5115 90.9063 16.1892 91.0617 16.1892C91.214 16.1892 91.3052 16.258 91.5681 16.4563L91.5843 16.4685C92.4414 17.0725 93.4649 17.3859 94.5083 17.3639C97.2557 17.3639 98.7035 16.1534 98.7035 13.7824C98.7035 10.9494 96.4946 10.3724 94.5376 9.86118C92.9813 9.45466 91.5843 9.08975 91.5843 7.66506C91.5843 6.49031 92.3966 5.59493 94.3035 5.59493C96.3163 5.59493 97.6159 6.67656 97.7289 8.25961V8.86131C97.7289 9.13351 97.8277 9.22661 97.9831 9.22661C98.1385 9.22661 98.2091 9.04755 98.2091 8.86131C98.2091 8.78522 98.1938 8.66727 98.1728 8.50551L98.1727 8.50541L98.1727 8.50515C98.1423 8.27103 98.1 7.94521 98.0749 7.52179L98.0255 6.74101C98.0029 6.30436 98.0029 5.86682 98.0255 5.43017C98.0255 5.15797 97.9831 5.04336 97.7995 5.04336C97.6158 5.04336 97.5523 5.15797 97.5523 5.38719L97.5525 5.48309C97.5535 5.84092 97.5541 6.05336 97.411 6.05336C97.3107 6.05336 97.2458 6.01456 97.0965 5.92542L97.0964 5.92537C97.0144 5.8764 96.9069 5.81225 96.7542 5.73101C96.0141 5.2867 95.1627 5.07018 94.3035 5.10782C91.768 5.10782 90.4049 6.3757 90.4049 8.56045C90.4049 10.9615 92.3728 11.4803 94.2311 11.9703ZM102.871 11.3177V11.7331H105.188C107.639 11.7331 108.719 10.7017 108.719 8.6745C108.719 6.64734 107.808 5.56571 106.155 5.56571C104.107 5.56571 102.907 7.34217 102.907 11.2962L102.871 11.3177ZM110.485 8.74614C110.485 11.0885 108.74 12.1988 105.244 12.1988H102.935C103.111 15.7803 104.474 16.8404 106.586 16.8404C107.605 16.8516 108.615 16.6492 109.553 16.2459C109.802 16.1253 110.039 15.9789 110.259 15.809C110.464 15.7158 110.577 15.7158 110.647 15.809C110.718 15.9021 110.711 16.0883 110.485 16.2244C110.342 16.3106 110.289 16.3336 110.132 16.4025C110.041 16.4424 109.915 16.4977 109.715 16.5897C108.664 17.1161 107.504 17.3836 106.332 17.3705C102.596 17.3705 100.894 14.9781 100.894 11.3249C100.894 7.67168 102.659 5.06429 106.134 5.06429C108.804 5.06429 110.464 6.37515 110.464 8.72465L110.485 8.74614ZM114.564 14.9516C114.417 14.8897 114.26 14.8594 114.101 14.8629C113.932 14.8647 113.765 14.9008 113.61 14.9692C113.455 15.0376 113.315 15.1369 113.199 15.2611C113.082 15.3853 112.991 15.532 112.932 15.6925C112.872 15.8529 112.845 16.0239 112.851 16.1952C112.839 16.3518 112.86 16.5092 112.912 16.657C112.965 16.8048 113.047 16.9397 113.155 17.0527C113.262 17.1658 113.392 17.2545 113.536 17.3128C113.679 17.3712 113.834 17.398 113.988 17.3915C114.156 17.3954 114.323 17.3647 114.479 17.3013C114.635 17.2379 114.777 17.1431 114.896 17.0225C115.015 16.902 115.108 16.7583 115.171 16.6001C115.233 16.4419 115.264 16.2725 115.26 16.1021C115.272 15.9418 115.25 15.7807 115.197 15.6292C115.144 15.4777 115.06 15.3392 114.951 15.2225C114.842 15.1058 114.71 15.0135 114.564 14.9516ZM121.648 16.8193C122.346 16.8156 123.021 16.5619 123.554 16.103C124.025 15.6701 124.396 15.1366 124.641 14.5409C124.885 13.9452 124.996 13.302 124.966 12.6575V11.0673H123.243C120.594 11.0673 119.478 11.9412 119.478 14.126C119.478 16.0356 120.358 16.8169 121.648 16.8193ZM127.939 16.8623C128.126 16.855 128.309 16.8085 128.476 16.7259C128.644 16.6433 128.793 16.5263 128.914 16.3824C129.077 16.2463 129.232 16.2176 129.324 16.3322C129.416 16.4468 129.324 16.6331 129.189 16.7477C128.676 17.1792 128.019 17.3945 127.353 17.3494C125.941 17.3494 125.15 16.6331 124.994 14.9999C124.672 15.7466 124.132 16.3748 123.446 16.799C122.759 17.2232 121.961 17.4229 121.159 17.3709C119.118 17.3709 117.55 16.3823 117.55 14.1045C117.55 11.4326 119.733 10.6089 123.243 10.6089H124.966V9.98569C124.966 6.74079 123.9 5.59471 121.971 5.59471C120.319 5.59471 119.274 6.21074 118.843 7.11329C119.017 6.99127 119.224 6.92628 119.436 6.92704C119.585 6.92425 119.732 6.95347 119.869 7.0128C120.006 7.07213 120.129 7.16022 120.23 7.27123C120.33 7.38224 120.407 7.51367 120.454 7.65684C120.501 7.80001 120.517 7.95167 120.502 8.1018C120.514 8.26281 120.491 8.42438 120.436 8.57584C120.381 8.7273 120.295 8.86517 120.183 8.98032C120.072 9.09546 119.937 9.18525 119.789 9.24373C119.641 9.30221 119.482 9.32804 119.323 9.31952C119.17 9.32849 119.018 9.30388 118.876 9.2474C118.733 9.19093 118.605 9.10393 118.499 8.99234C118.393 8.88075 118.312 8.74723 118.261 8.60094C118.211 8.45464 118.193 8.29903 118.207 8.14478C118.207 6.28237 119.57 5.10761 122.381 5.10761C125.192 5.10761 126.852 6.64768 126.852 10.308V15.0214C126.852 16.2462 127.24 16.8623 127.939 16.8623ZM132.228 11.7331V11.3177V11.2962C132.228 7.34217 133.429 5.56571 135.47 5.56571C137.129 5.56571 138.033 6.64734 138.033 8.6745C138.033 10.7017 136.995 11.7331 134.545 11.7331H132.228ZM134.566 12.1988C138.055 12.1988 139.806 11.0885 139.806 8.74614L139.785 8.72465C139.785 6.37515 138.125 5.06429 135.449 5.06429C131.981 5.06429 130.215 7.67167 130.215 11.3249C130.215 14.9781 131.91 17.3705 135.653 17.3705C136.826 17.3828 137.985 17.1153 139.036 16.5897C139.236 16.4977 139.362 16.4424 139.453 16.4024C139.611 16.3336 139.663 16.3106 139.806 16.2244C140.032 16.0883 140.025 15.9021 139.962 15.809C139.898 15.7158 139.785 15.7158 139.58 15.809C139.36 15.9789 139.124 16.1253 138.874 16.2459C137.934 16.6492 136.921 16.8516 135.901 16.8404C133.796 16.8404 132.433 15.7803 132.249 12.1988H134.566Z" fill="#222222"/>
</g>
<defs>
<clipPath id="clip0_166_1101">
<rect width="140" height="24" fill="white"/>
</clipPath>
</defs>
</svg>
