<svg width="55" height="55" viewBox="0 0 55 55" fill="none" xmlns="http://www.w3.org/2000/svg">
<g id="Group">
<g id="Layer_2">
<path id="Path" d="M20.625 44.0377V6.875" stroke="#222" stroke-width="2" stroke-linecap="round" stroke-linejoin="round"/>
<path id="Path_2" d="M34.375 10.9619V48.1242" stroke="#222" stroke-width="2" stroke-linecap="round" stroke-linejoin="round"/>
<path id="Path_3" fill-rule="evenodd" clip-rule="evenodd" d="M48.125 12.986V40.4853C48.125 42.458 46.8628 44.2094 44.9914 44.8334L35.8247 47.8897C34.8837 48.2034 33.8664 48.2034 32.9255 47.8897L22.0745 44.2724C21.1336 43.9587 20.1164 43.9587 19.1755 44.2724L12.9079 46.3618C11.5102 46.8278 9.97371 46.5934 8.77848 45.732C7.58324 44.8705 6.87499 43.487 6.875 42.0137V14.5143C6.87499 12.5415 8.1373 10.7901 10.0088 10.1662L19.1755 7.11026C20.1164 6.79658 21.1336 6.79658 22.0745 7.11026L32.9254 10.7276C33.8663 11.0413 34.8837 11.0413 35.8246 10.7276L42.092 8.638C43.4897 8.17199 45.0262 8.4063 46.2214 9.26772C47.4167 10.1291 48.125 11.5126 48.125 12.986Z" stroke="#222" stroke-width="2" stroke-linecap="round" stroke-linejoin="round"/>
</g>
</g>
</svg>
