<svg width="20" height="20" viewBox="0 0 20 20" fill="none" xmlns="http://www.w3.org/2000/svg">
<g id="Group">
<path id="Path" d="M17.5031 7.91581V5.41477C17.5031 4.2637 16.57 3.33057 15.4189 3.33057H4.58109C3.43002 3.33057 2.49689 4.2637 2.49689 5.41477V6.66529" stroke="#D0A966" stroke-width="1.2" stroke-linecap="round" stroke-linejoin="round"/>
<path id="Path_2" d="M17.5031 12.0842V14.5853C17.5031 15.7363 16.57 16.6695 15.4189 16.6695H10.8337" stroke="#D0A966" stroke-width="1.2" stroke-linecap="round" stroke-linejoin="round"/>
<path id="Path_3" d="M1.66321 10.5002V16.1693C1.66416 16.9058 3.15621 17.5032 4.99793 17.5032C6.83965 17.5032 8.3317 16.9058 8.33265 16.1693V10.5002" stroke="#D0A966" stroke-width="1.2" stroke-linecap="round" stroke-linejoin="round"/>
<path id="Path_4" d="M8.3317 10.5003C8.3317 11.2368 6.8387 11.8342 4.99698 11.8342C3.15526 11.8342 1.66321 11.2368 1.66321 10.5003C1.66321 9.76282 3.15716 9.16638 4.99793 9.16638C6.8387 9.16638 8.3317 9.76377 8.33265 10.5003" stroke="#D0A966" stroke-width="1.2" stroke-linecap="round" stroke-linejoin="round"/>
<path id="Path_5" d="M1.6637 13.3347C1.6637 14.0712 3.15575 14.6686 4.99747 14.6686C6.83919 14.6686 8.33219 14.0712 8.33219 13.3347" stroke="#D0A966" stroke-width="1.2" stroke-linecap="round" stroke-linejoin="round"/>
<path id="Path_6" fill-rule="evenodd" clip-rule="evenodd" d="M15.4189 7.91577H17.5031C17.9635 7.91577 18.3368 8.28902 18.3368 8.74945V11.2505C18.3368 11.7109 17.9635 12.0842 17.5031 12.0842H15.4189C14.2678 12.0842 13.3347 11.151 13.3347 9.99997V9.99997C13.3347 8.8489 14.2678 7.91577 15.4189 7.91577V7.91577Z" stroke="#D0A966" stroke-width="1.2" stroke-linecap="round" stroke-linejoin="round"/>
</g>
</svg>
