<svg width="50" height="50" viewBox="0 0 50 50" fill="none" xmlns="http://www.w3.org/2000/svg">
<path d="M14.5469 20.8333C14.5469 12.7792 18.2941 6.25 22.9165 6.25C27.5389 6.25 31.2861 12.7792 31.2861 20.8333" stroke="#222222" stroke-width="1.5" stroke-linecap="round" stroke-linejoin="round"/>
<path fill-rule="evenodd" clip-rule="evenodd" d="M6.24962 20.8333H39.5839C40.2302 20.8277 40.8381 20.5256 41.2328 20.0139C41.6276 19.5022 41.7656 18.8375 41.6071 18.211C39.9982 11.4083 32.2422 6.25 22.9168 6.25C13.5913 6.25 5.83533 11.4083 4.22645 18.2109C4.06794 18.8375 4.2059 19.5021 4.60068 20.0139C4.99546 20.5256 5.60335 20.8277 6.24962 20.8333V20.8333Z" stroke="#222222" stroke-width="1.5" stroke-linecap="round" stroke-linejoin="round"/>
<path d="M22.9167 31.2501V22.9167" stroke="#222222" stroke-width="1.5" stroke-linecap="round" stroke-linejoin="round"/>
<path d="M43.75 29.1667L38.75 35.8334C37.9631 36.8826 36.7282 37.5001 35.4167 37.5001H11.3365C9.54304 37.5001 7.95079 38.6477 7.38365 40.3491L6.25 43.7501" stroke="#222222" stroke-width="1.5" stroke-linecap="round" stroke-linejoin="round"/>
<path d="M39.5833 43.75L37.5 37.5" stroke="#222222" stroke-width="1.5" stroke-linecap="round" stroke-linejoin="round"/>
</svg>
