<svg width="17" height="17" viewBox="0 0 17 17" fill="none" xmlns="http://www.w3.org/2000/svg">
<g id="Group">
<path id="Path" d="M6.09851 4.95685H8.77571" stroke="#222222" stroke-linecap="round" stroke-linejoin="round"/>
<path id="Path_2" d="M6.37418 8.5H4.24829V13.4604" stroke="#222222" stroke-linecap="round" stroke-linejoin="round"/>
<path id="Path_3" d="M4.24821 13.4606H1.4137V5.3553C1.4137 4.86914 1.67737 4.42123 2.10248 4.18536L6.78723 1.58256C7.19156 1.3579 7.68323 1.3579 8.08756 1.58256L12.7723 4.18536C13.197 4.42152 13.4604 4.86933 13.4604 5.3553V6.37431" stroke="#222222" stroke-linecap="round" stroke-linejoin="round"/>
<path id="Path_4" d="M15.5863 12.6101C15.5863 11.8274 14.9518 11.1929 14.169 11.1929H8.50002C7.71729 11.1929 7.08276 11.8274 7.08276 12.6101" stroke="#222222" stroke-linecap="round" stroke-linejoin="round"/>
<path id="Path_5" d="M7.08276 12.6104V14.878C7.08276 15.2693 7.40003 15.5866 7.79139 15.5866H8.49293C8.8843 15.5866 9.20156 15.2693 9.20156 14.878V14.4096H13.4675V14.878C13.4675 15.2693 13.7848 15.5866 14.1761 15.5866H14.8777C15.269 15.5866 15.5863 15.2693 15.5863 14.878V12.6104" stroke="#222222" stroke-linecap="round" stroke-linejoin="round"/>
<path id="Path_6" d="M9.73091 12.8226H8.67151" stroke="#222222" stroke-linecap="round" stroke-linejoin="round"/>
<path id="Path_7" d="M13.9975 12.8226H12.9381" stroke="#222222" stroke-linecap="round" stroke-linejoin="round"/>
<path id="Path_8" d="M14.5269 11.1483L15.5863 10.6189" stroke="#222222" stroke-linecap="round" stroke-linejoin="round"/>
<path id="Path_9" d="M8.14571 11.1483L7.08276 10.6189" stroke="#222222" stroke-linecap="round" stroke-linejoin="round"/>
<path id="Path_10" d="M9.61116 8.5C9.1193 8.50124 8.69253 8.83979 8.5794 9.31847L8.13013 11.2388L8.5794 9.31847C8.69253 8.83979 9.1193 8.50124 9.61116 8.5H13.0579C13.5498 8.50124 13.9766 8.83979 14.0897 9.31847L14.539 11.2388" stroke="#222222" stroke-linecap="round" stroke-linejoin="round"/>
</g>
</svg>
