<svg width="50" height="50" viewBox="0 0 50 50" fill="none" xmlns="http://www.w3.org/2000/svg">
<g id="Group">
<g id="Layer_2">
<path id="Path" fill-rule="evenodd" clip-rule="evenodd" d="M6.25002 33.3335H27.0834C28.2339 33.3335 29.1667 34.2662 29.1667 35.4168V39.5835H4.16669V35.4168C4.16669 34.2662 5.09943 33.3335 6.25002 33.3335Z" stroke="#222222" stroke-width="1.5" stroke-linecap="round" stroke-linejoin="round"/>
<path id="Path_2" d="M29.1667 43.7502V39.5835" stroke="#222222" stroke-width="1.5" stroke-linecap="round" stroke-linejoin="round"/>
<path id="Path_3" d="M4.16667 43.7502V39.5835" stroke="#222222" stroke-width="1.5" stroke-linecap="round" stroke-linejoin="round"/>
<path id="Path_4" fill-rule="evenodd" clip-rule="evenodd" d="M8.33333 25H25C26.1506 25 27.0833 25.9327 27.0833 27.0833V33.3333H6.25V27.0833C6.25 25.9327 7.18274 25 8.33333 25Z" stroke="#222222" stroke-width="1.5" stroke-linecap="round" stroke-linejoin="round"/>
<path id="Path_5" d="M35.4167 39.5832H43.75" stroke="#222222" stroke-width="1.5" stroke-linecap="round" stroke-linejoin="round"/>
<ellipse id="Oval" cx="39.5833" cy="17.7083" rx="8.33333" ry="11.4583" stroke="#222222" stroke-width="1.5" stroke-linecap="round" stroke-linejoin="round"/>
<path id="Path_6" d="M39.5834 18.75V39.5833" stroke="#222222" stroke-width="1.5" stroke-linecap="round" stroke-linejoin="round"/>
<path id="Path_7" fill-rule="evenodd" clip-rule="evenodd" d="M17.573 7.33068C19.4995 7.53093 20.9309 9.20618 20.8281 11.1403C20.7253 13.0745 19.1244 14.5885 17.1875 14.5834H9.375C7.64911 14.5834 6.25 13.1843 6.25 11.4584C6.25 9.73254 7.64911 8.33343 9.375 8.33343C9.37138 6.22879 10.9404 4.4531 13.0295 4.19757C15.1185 3.94205 17.0693 5.28722 17.573 7.33068Z" stroke="#222222" stroke-width="1.5" stroke-linecap="round" stroke-linejoin="round"/>
</g>
</g>
</svg>
