<svg width="40" height="40" viewBox="0 0 40 40" fill="none" xmlns="http://www.w3.org/2000/svg">
<g id="Group">
<path id="Path" fill-rule="evenodd" clip-rule="evenodd" d="M29.4281 8.91829V8.91829C34.6351 14.1499 34.6351 22.6059 29.4281 27.8375V27.8375L23.9084 33.3756C21.76 35.5341 18.2686 35.5424 16.11 33.3941L16.0917 33.3756L10.5719 27.8375C5.36499 22.6059 5.36494 14.15 10.5718 8.91829V8.91829C15.7543 3.7113 24.1766 3.69141 29.3836 8.87388L29.428 8.91829H29.4281Z" stroke="white" stroke-width="1.5" stroke-linecap="round" stroke-linejoin="round"/>
<path id="Path_2" fill-rule="evenodd" clip-rule="evenodd" d="M25 17.7145V21.6666C25 22.5871 24.2538 23.3333 23.3333 23.3333H16.6667C15.7462 23.3333 15 22.5871 15 21.6666V17.6185C15 17.1122 15.2302 16.6333 15.6255 16.317L18.8989 13.6985C19.5076 13.2115 20.3724 13.2115 20.9811 13.6985L24.3745 16.413C24.7698 16.7293 25 17.2082 25 17.7145Z" stroke="white" stroke-width="1.5" stroke-linecap="round" stroke-linejoin="round"/>
</g>
</svg>
