<svg width="1087" height="307" viewBox="0 0 1087 307" fill="none" xmlns="http://www.w3.org/2000/svg">
<path d="M53.5437 76.9916V274.786C53.5437 284.021 56.2317 290.141 61.6076 293.148C67.1985 296.369 74.8322 297.98 84.5088 297.98V304.745C79.778 304.53 73.2195 304.208 64.8331 303.779C56.4467 303.564 47.5228 303.456 38.0612 303.456C31.3951 303.456 24.729 303.564 18.063 303.779C11.6119 304.208 6.66609 304.53 3.22553 304.745V297.98C10.9668 297.98 16.4502 296.584 19.6757 293.792C22.9012 291 24.514 285.739 24.514 278.007V115.648C24.514 105.984 22.7937 98.8972 19.3532 94.3872C15.9126 89.6625 9.46154 87.3001 0 87.3001V80.5351C6.88112 81.1794 13.5472 81.5016 19.9983 81.5016C26.2343 81.5016 32.1478 81.1794 37.7387 80.5351C43.5446 79.6761 48.813 78.4949 53.5437 76.9916ZM105.152 76.0252C122.14 76.0252 136.332 82.8975 147.729 96.6422C159.341 110.172 165.147 129.93 165.147 155.916C165.147 171.379 162.567 186.412 157.406 201.016C152.46 215.619 144.611 227.646 133.859 237.096C123.108 246.33 108.915 250.948 91.2824 250.948C81.1758 250.948 72.3593 248.585 64.8331 243.86C57.5219 239.136 52.5761 233.445 49.9957 226.787L53.2212 222.277C56.2317 228.29 60.5324 233.337 66.1233 237.418C71.9293 241.498 79.1329 243.538 87.7343 243.538C99.7763 243.538 109.13 239.78 115.796 232.263C122.463 224.747 127.086 214.76 129.666 202.304C132.462 189.633 133.859 175.674 133.859 160.426C133.859 143.245 132.462 129.178 129.666 118.226C126.871 107.273 122.678 99.1119 117.087 93.7429C111.496 88.3739 104.615 85.6894 96.4433 85.6894C85.9065 85.6894 76.3375 90.092 67.7361 98.8972C59.1347 107.488 53.6513 120.588 51.2859 138.198L47.4152 133.688C49.7806 115.434 56.2317 101.26 66.7684 91.1658C77.5202 81.0721 90.3148 76.0252 105.152 76.0252Z" fill="#222222"/>
<path d="M281.929 76.0252C287.735 76.0252 292.788 77.2064 297.089 79.5687C301.604 81.9311 305.045 85.0451 307.41 88.9108C309.991 92.5617 311.281 96.7496 311.281 101.474C311.281 106.843 309.561 111.568 306.12 115.648C302.895 119.729 298.486 121.769 292.895 121.769C288.38 121.769 284.402 120.373 280.961 117.581C277.52 114.575 275.8 110.387 275.8 105.018C275.8 100.937 276.875 97.5012 279.026 94.7094C281.391 91.7027 283.972 89.3403 286.767 87.6222C285.262 85.4746 283.004 84.4008 279.993 84.4008C270.962 84.4008 263.113 87.837 256.447 94.7094C249.781 101.367 244.513 109.42 240.642 118.87C236.986 128.319 235.159 137.017 235.159 144.963V213.257C235.159 223.78 238.169 230.867 244.19 234.518C250.426 237.955 258.812 239.673 269.349 239.673V246.438C264.403 246.223 257.415 246.008 248.383 245.793C239.352 245.364 229.783 245.149 219.676 245.149C212.365 245.149 205.054 245.364 197.742 245.793C190.646 246.008 185.27 246.223 181.615 246.438V239.673C190.431 239.673 196.667 238.062 200.323 234.84C204.193 231.619 206.129 225.498 206.129 216.479V115.648C206.129 105.984 204.409 98.8972 200.968 94.3872C197.527 89.6625 191.076 87.3001 181.615 87.3001V80.5351C188.496 81.1794 195.162 81.5016 201.613 81.5016C207.849 81.5016 213.763 81.1794 219.353 80.5351C225.159 79.6761 230.428 78.4949 235.159 76.9916V117.259C237.524 111.031 240.857 104.803 245.158 98.575C249.673 92.1322 255.049 86.7632 261.285 82.468C267.521 78.1728 274.402 76.0252 281.929 76.0252Z" fill="#222222"/>
<path d="M389.913 76.0252C403.676 76.0252 416.04 79.0318 427.007 85.0451C437.974 91.0584 446.683 100.508 453.134 113.394C459.8 126.279 463.133 143.03 463.133 163.647C463.133 184.264 459.8 201.016 453.134 213.901C446.683 226.572 437.974 235.914 427.007 241.928C416.04 247.941 403.676 250.948 389.913 250.948C376.366 250.948 364.002 247.941 352.82 241.928C341.853 235.914 333.036 226.572 326.37 213.901C319.919 201.016 316.694 184.264 316.694 163.647C316.694 143.03 319.919 126.279 326.37 113.394C333.036 100.508 341.853 91.0584 352.82 85.0451C364.002 79.0318 376.366 76.0252 389.913 76.0252ZM389.913 82.468C377.656 82.468 367.55 88.8034 359.593 101.474C351.852 114.145 347.981 134.87 347.981 163.647C347.981 192.425 351.852 213.15 359.593 225.821C367.55 238.277 377.656 244.505 389.913 244.505C402.17 244.505 412.169 238.277 419.911 225.821C427.867 213.15 431.845 192.425 431.845 163.647C431.845 134.87 427.867 114.145 419.911 101.474C412.169 88.8034 402.17 82.468 389.913 82.468Z" fill="#222222"/>
<path d="M461.795 307V302.168C475.127 301.524 485.126 295.725 491.792 284.772C498.458 274.034 501.791 259.216 501.791 240.317V115.648C501.791 105.984 500.071 98.8972 496.63 94.3872C493.19 89.6625 486.739 87.3001 477.277 87.3001V80.5351C484.158 81.1794 490.824 81.5016 497.275 81.5016C503.511 81.5016 509.425 81.1794 515.016 80.5351C520.822 79.6761 526.09 78.4949 530.821 76.9916V209.391C530.821 225.498 528.993 240.317 525.338 253.847C521.897 267.377 515.983 278.544 507.597 287.349C502.221 293.148 495.555 297.873 487.599 301.524C479.858 305.175 471.256 307 461.795 307ZM513.403 0C518.994 0 523.832 2.04022 527.918 6.12067C532.004 10.2011 534.046 15.0332 534.046 20.617C534.046 26.2008 532.004 31.0329 527.918 35.1133C523.832 39.1938 518.994 41.234 513.403 41.234C507.812 41.234 502.974 39.1938 498.888 35.1133C494.803 31.0329 492.76 26.2008 492.76 20.617C492.76 15.0332 494.803 10.2011 498.888 6.12067C502.974 2.04022 507.812 0 513.403 0Z" fill="#222222"/>
<path d="M635.845 76.0252C654.768 76.0252 669.498 81.8237 680.034 93.4208C690.786 104.803 696.162 122.628 696.162 146.896H582.301L581.978 140.775H665.197C665.627 130.252 664.767 120.588 662.616 111.783C660.466 102.763 657.026 95.5684 652.295 90.1994C647.779 84.8304 641.866 82.1459 634.554 82.1459C624.663 82.1459 615.846 87.0853 608.105 96.9643C600.579 106.843 596.063 122.521 594.558 143.997L595.526 145.285C595.095 148.507 594.773 152.05 594.558 155.916C594.343 159.782 594.235 163.647 594.235 167.513C594.235 182.117 596.601 194.68 601.331 205.204C606.062 215.727 612.191 223.78 619.717 229.364C627.458 234.733 635.414 237.418 643.586 237.418C653.262 237.418 662.186 235.055 670.358 230.331C678.529 225.606 685.41 217.23 691.001 205.204L697.452 207.781C695.087 214.868 691.216 221.74 685.84 228.398C680.464 235.055 673.691 240.532 665.519 244.827C657.348 248.907 647.887 250.948 637.135 250.948C621.652 250.948 608.32 247.404 597.138 240.317C586.171 233.23 577.678 223.458 571.657 211.002C565.851 198.331 562.948 183.835 562.948 167.513C562.948 148.614 565.958 132.4 571.979 118.87C578 105.125 586.494 94.602 597.461 87.3001C608.428 79.7835 621.222 76.0252 635.845 76.0252Z" fill="#222222"/>
<path d="M793.205 76.0252C800.086 76.0252 806.752 76.8842 813.203 78.6023C819.654 80.3204 825.46 82.8975 830.621 86.3337C835.567 89.5551 839.33 93.3134 841.91 97.6086C844.491 101.689 845.781 106.199 845.781 111.139C845.781 116.937 844.168 121.447 840.943 124.668C837.717 127.675 833.632 129.178 828.686 129.178C823.955 129.178 819.762 127.782 816.106 124.991C812.666 122.199 810.945 118.226 810.945 113.071C810.945 108.132 812.236 104.159 814.816 101.152C817.611 98.1455 820.837 96.2127 824.492 95.3536C822.342 91.4879 818.472 88.2665 812.881 85.6894C807.505 83.1123 801.699 81.8237 795.463 81.8237C790.087 81.8237 784.711 83.1123 779.335 85.6894C773.959 88.2665 769.013 92.5617 764.498 98.575C759.982 104.374 756.326 112.427 753.531 122.736C750.735 132.829 749.338 145.5 749.338 160.748C749.338 179.647 751.488 194.68 755.789 205.848C760.09 217.015 765.68 225.069 772.562 230.008C779.658 234.733 787.399 237.096 795.785 237.096C804.172 237.096 812.666 234.626 821.267 229.686C829.868 224.747 836.965 216.156 842.555 203.915L848.684 206.17C846.534 213.042 842.986 220.022 838.04 227.109C833.094 233.981 826.643 239.673 818.687 244.183C810.73 248.693 800.946 250.948 789.334 250.948C776.002 250.948 763.96 247.511 753.208 240.639C742.457 233.767 733.855 223.995 727.404 211.324C721.168 198.439 718.05 183.191 718.05 165.58C718.05 147.97 721.168 132.507 727.404 119.192C733.855 105.662 742.779 95.1389 754.176 87.6222C765.573 79.8909 778.583 76.0252 793.205 76.0252Z" fill="#222222"/>
<path d="M913.3 27.0598V80.8573H961.038V87.3001H913.3V211.969C913.3 222.062 915.128 229.149 918.784 233.23C922.439 237.31 927.493 239.35 933.944 239.35C940.395 239.35 945.986 236.773 950.716 231.619C955.447 226.25 959.533 217.338 962.974 204.881L969.425 206.492C967.274 218.948 962.974 229.471 956.522 238.062C950.286 246.652 940.61 250.948 927.493 250.948C920.182 250.948 914.161 249.981 909.43 248.048C904.699 246.33 900.506 243.753 896.85 240.317C892.119 235.377 888.786 229.472 886.851 222.599C885.131 215.727 884.271 206.6 884.271 195.217V87.3001H853.306V80.8573H884.271V31.5698C889.646 31.355 894.807 30.9255 899.753 30.2812C904.699 29.6369 909.215 28.5631 913.3 27.0598Z" fill="#222222"/>
<path d="M1025.07 76.0252C1033.67 76.0252 1040.98 77.4211 1047 80.213C1053.02 83.0049 1057.43 85.582 1060.23 87.9444C1067.32 93.7429 1071.62 89.8772 1073.13 76.3473H1080.55C1080.12 82.3606 1079.8 89.5551 1079.58 97.9307C1079.37 106.092 1079.26 117.152 1079.26 131.111H1071.84C1070.55 123.165 1068.29 115.434 1065.07 107.917C1062.06 100.4 1057.54 94.2798 1051.52 89.5551C1045.5 84.6156 1037.65 82.1459 1027.97 82.1459C1020.45 82.1459 1014.1 84.2935 1008.94 88.5887C1004 92.6691 1001.52 98.7898 1001.52 106.951C1001.52 113.393 1003.46 118.977 1007.33 123.702C1011.2 128.212 1016.25 132.507 1022.49 136.588C1028.73 140.453 1035.5 144.749 1042.81 149.473C1055.07 157.419 1065.5 165.473 1074.1 173.634C1082.7 181.795 1087 192.533 1087 205.848C1087 215.727 1084.42 223.995 1079.26 230.653C1074.1 237.31 1067.32 242.357 1058.94 245.793C1050.77 249.229 1041.74 250.948 1031.84 250.948C1027.11 250.948 1022.6 250.518 1018.3 249.659C1014.21 249.015 1010.23 247.941 1006.36 246.438C1004.21 245.364 1001.95 244.075 999.588 242.572C997.438 241.069 995.288 239.458 993.137 237.74C990.987 236.022 989.052 236.129 987.331 238.062C985.611 239.78 984.321 243.324 983.461 248.693H976.042C976.472 241.82 976.795 233.445 977.01 223.566C977.225 213.687 977.332 200.586 977.332 184.264H984.751C986.256 196.291 988.406 206.814 991.202 215.834C993.997 224.854 998.406 231.941 1004.43 237.096C1010.45 242.035 1018.83 244.505 1029.59 244.505C1036.04 244.505 1042.38 242.25 1048.62 237.74C1055.07 233.23 1058.29 225.284 1058.29 213.901C1058.29 204.452 1054.85 196.721 1047.97 190.707C1041.09 184.694 1032.38 178.359 1021.84 171.701C1014.1 166.761 1006.79 161.822 999.911 156.882C993.245 151.943 987.761 146.359 983.461 140.131C979.375 133.903 977.332 126.387 977.332 117.581C977.332 107.917 979.482 100.078 983.783 94.0651C988.299 87.837 994.212 83.327 1001.52 80.5351C1008.83 77.5285 1016.68 76.0252 1025.07 76.0252Z" fill="#222222"/>
</svg>
