<svg width="17" height="17" viewBox="0 0 17 17" fill="none" xmlns="http://www.w3.org/2000/svg">
<g id="Group">
<path id="Path" d="M1.41663 9.20817H15.5833" stroke="#222222" stroke-linecap="round" stroke-linejoin="round"/>
<path id="Path_2" d="M14.875 9.2085L14.4893 11.6772C14.2654 13.1103 13.031 14.1668 11.5805 14.1668H5.41951C3.96899 14.1668 2.73461 13.1103 2.5107 11.6772L2.125 9.2085" stroke="#222222" stroke-linecap="round" stroke-linejoin="round"/>
<path id="Path_3" d="M4.34291 13.9595L3.54163 14.8751" stroke="#222222" stroke-linecap="round" stroke-linejoin="round"/>
<path id="Path_4" d="M12.6571 13.9595L13.4584 14.8751" stroke="#222222" stroke-linecap="round" stroke-linejoin="round"/>
<path id="Path_5" fill-rule="evenodd" clip-rule="evenodd" d="M7.71246 4.25H7.87086C8.62164 4.25 9.28819 4.73042 9.5256 5.44267V5.44267C9.59761 5.65868 9.56138 5.89613 9.42825 6.08084C9.29512 6.26555 9.08131 6.375 8.85362 6.375H6.72971C6.50202 6.375 6.28821 6.26555 6.15507 6.08084C6.02194 5.89613 5.98571 5.65868 6.05772 5.44267V5.44267C6.29514 4.73042 6.96168 4.25 7.71246 4.25V4.25Z" stroke="#222222" stroke-linecap="round" stroke-linejoin="round"/>
<path id="Path_6" d="M7.79163 4.25V4.25C7.79163 3.07639 6.84023 2.125 5.66663 2.125V2.125C4.49302 2.125 3.54163 3.07639 3.54163 4.25V9.20833" stroke="#222222" stroke-linecap="round" stroke-linejoin="round"/>
</g>
</svg>
