<svg width="45" height="45" viewBox="0 0 45 45" fill="none" xmlns="http://www.w3.org/2000/svg">
<g id="Group">
<path id="Path" d="M18.5815 13.7682H22.5L25.5538 11.9075C26.0416 11.6103 26.6383 11.5516 27.1747 11.748C27.7111 11.9445 28.1288 12.3747 28.3093 12.9166L32.6292 25.8764L38.7067 33.9798C39.4741 35.0029 39.5975 36.3717 39.0256 37.5156C38.4536 38.6595 37.2845 39.382 36.0056 39.382H28.6338C26.5492 39.3833 24.5583 38.516 23.1396 36.9885L7.11859 19.7445C6.07814 18.6223 5.53958 17.1248 5.627 15.597C5.71441 14.0692 6.42026 12.6429 7.5819 11.6467L14.0027 6.14506C14.6474 5.59284 15.5544 5.46631 16.3256 5.82105C17.0968 6.17579 17.5909 6.94691 17.5911 7.79574V13.7682H22.5" stroke="#3B3734" stroke-width="1.5" stroke-linecap="round" stroke-linejoin="round"/>
<path id="Path_2" d="M5.61792 32.8168H9.36948" stroke="#3B3734" stroke-width="1.5" stroke-linecap="round" stroke-linejoin="round"/>
<path id="Path_3" d="M14.9968 39.382H5.61792" stroke="#3B3734" stroke-width="1.5" stroke-linecap="round" stroke-linejoin="round"/>
<path id="Path_4" d="M38.5323 33.7547H29.1083C27.5468 33.759 26.0546 33.1102 24.9929 31.9652L6.84656 12.4233" stroke="#3B3734" stroke-width="1.5" stroke-linecap="round" stroke-linejoin="round"/>
<path id="Path_5" d="M24.3757 24.3757L31.7007 23.1077" stroke="#3B3734" stroke-width="1.5" stroke-linecap="round" stroke-linejoin="round"/>
<path id="Path_6" d="M22.5 19.6863L30.1232 18.3677" stroke="#3B3734" stroke-width="1.5" stroke-linecap="round" stroke-linejoin="round"/>
</g>
</svg>
