<svg width="34" height="34" viewBox="0 0 34 34" fill="none" xmlns="http://www.w3.org/2000/svg">
<g id="Group">
<path id="Path" fill-rule="evenodd" clip-rule="evenodd" d="M15.2119 15.2195C16.1067 16.6714 17.329 17.8937 18.7809 18.7885L20.1506 17.9667C20.748 17.6082 21.5053 17.6592 22.0493 18.0944L24.7078 20.2211C25.0799 20.5188 25.3068 20.9616 25.3312 21.4375C25.3555 21.9135 25.175 22.377 24.8351 22.7111L23.6333 23.8928C21.9778 25.5253 19.4157 25.8017 17.4501 24.56C14.2441 22.4863 11.5141 19.7564 9.44047 16.5503C8.19868 14.5847 8.47513 12.0225 10.1076 10.367L11.2893 9.16518C11.6234 8.82537 12.087 8.64483 12.5629 8.66917C13.0388 8.69351 13.4815 8.92041 13.7792 9.29253L15.906 11.9511C16.3412 12.4951 16.3922 13.2523 16.0337 13.8497L15.2119 15.2195Z" stroke="white" stroke-width="1.5" stroke-linecap="round" stroke-linejoin="round"/>
<path id="Path_2" fill-rule="evenodd" clip-rule="evenodd" d="M8.44584 30.3106L3.95084 31.0618C3.67053 31.1086 3.38488 31.0171 3.18394 30.8162C2.983 30.6152 2.89151 30.3296 2.93834 30.0493L3.68934 25.554C-0.696826 18.7371 0.76224 9.71002 7.07261 4.62203C13.383 -0.465971 22.5142 0.022283 28.246 5.75419C33.9779 11.4861 34.466 20.6173 29.3779 26.9276C24.2898 33.2379 15.2627 34.6969 8.44584 30.3106Z" stroke="white" stroke-width="1.5" stroke-linecap="round" stroke-linejoin="round"/>
</g>
</svg>
